<svg width="200" height="135" viewBox="0 0 200 135" fill="none" xmlns="http://www.w3.org/2000/svg">
<g clip-path="url(#clip0_2001_916)">
<rect width="200" height="135" rx="13" fill="#334E34"/>
<path fill-rule="evenodd" clip-rule="evenodd" d="M149.269 125.709H154.244L157.372 107.079H152.397L149.269 125.709ZM167.25 114.545C165.545 113.692 164.479 113.123 164.479 112.27C164.479 111.488 165.403 110.634 167.321 110.634C168.956 110.634 170.093 110.99 171.017 111.345L171.444 111.559L172.083 107.506C171.088 107.15 169.596 106.724 167.677 106.724C162.773 106.724 159.361 109.212 159.29 112.839C159.29 115.541 161.778 117.034 163.626 117.887C165.545 118.812 166.184 119.38 166.184 120.163C166.184 121.442 164.621 122.011 163.199 122.011C161.209 122.011 160.143 121.727 158.509 121.016L157.869 120.731L157.158 124.927C158.295 125.424 160.428 125.922 162.702 125.922C167.89 125.922 171.301 123.433 171.301 119.594C171.444 117.461 170.093 115.896 167.25 114.545ZM184.805 107.079H180.967C179.759 107.079 178.906 107.435 178.409 108.643L171.088 125.709H176.276C176.276 125.709 177.129 123.433 177.342 122.936C177.911 122.936 182.957 122.936 183.668 122.936C183.81 123.576 184.236 125.709 184.236 125.709H188.856L184.805 107.079ZM178.693 119.096C179.119 118.03 180.683 113.906 180.683 113.906C180.683 113.977 181.109 112.839 181.323 112.128L181.678 113.763C181.678 113.763 182.602 118.172 182.815 119.167H178.693V119.096ZM145.076 107.079L140.243 119.736L139.746 117.176L138.04 108.643C137.756 107.435 136.903 107.079 135.766 107.079H127.806L127.735 107.435C129.654 107.932 131.43 108.643 132.923 109.497L137.329 125.638H142.589L150.407 107.079H145.076Z" fill="white"/>
<path d="M16.0042 120.187C15.523 120.668 14.9324 120.908 14.2325 120.908C13.5325 120.908 12.942 120.668 12.4607 120.187C11.9795 119.705 11.7389 119.115 11.7389 118.415C11.7389 117.715 11.9795 117.124 12.4607 116.643C12.942 116.162 13.5325 115.921 14.2325 115.921C14.9324 115.921 15.523 116.162 16.0042 116.643C16.4854 117.124 16.726 117.715 16.726 118.415C16.726 119.115 16.4854 119.705 16.0042 120.187ZM24.7276 120.187C24.2464 120.668 23.6558 120.908 22.9559 120.908C22.256 120.908 21.6654 120.668 21.1842 120.187C20.7029 119.705 20.4623 119.115 20.4623 118.415C20.4623 117.715 20.7029 117.124 21.1842 116.643C21.6654 116.162 22.256 115.921 22.9559 115.921C23.6558 115.921 24.2464 116.162 24.7276 116.643C25.2088 117.124 25.4495 117.715 25.4495 118.415C25.4495 119.115 25.2088 119.705 24.7276 120.187ZM33.451 120.187C32.9698 120.668 32.3793 120.908 31.6793 120.908C30.9794 120.908 30.3888 120.668 29.9076 120.187C29.4264 119.705 29.1858 119.115 29.1858 118.415C29.1858 117.715 29.4264 117.124 29.9076 116.643C30.3888 116.162 30.9794 115.921 31.6793 115.921C32.3793 115.921 32.9698 116.162 33.451 116.643C33.9323 117.124 34.1729 117.715 34.1729 118.415C34.1729 119.115 33.9323 119.705 33.451 120.187ZM42.1745 120.187C41.6932 120.668 41.1027 120.908 40.4027 120.908C39.7028 120.908 39.1122 120.668 38.631 120.187C38.1498 119.705 37.9092 119.115 37.9092 118.415C37.9092 117.715 38.1498 117.124 38.631 116.643C39.1122 116.162 39.7028 115.921 40.4027 115.921C41.1027 115.921 41.6932 116.162 42.1745 116.643C42.6557 117.124 42.8963 117.715 42.8963 118.415C42.8963 119.115 42.6557 119.705 42.1745 120.187ZM54.9951 123.271C53.9889 123.271 53.1358 122.995 52.4359 122.442C51.7414 121.884 51.3012 121.13 51.1153 120.178H52.6328C52.7913 120.731 53.0812 121.165 53.5022 121.483C53.9288 121.8 54.4318 121.958 55.0115 121.958C55.9739 121.958 56.7203 121.543 57.2508 120.712C57.7867 119.88 58.0737 118.677 58.112 117.102H58.0464H58.0136H57.9808C57.691 117.677 57.2699 118.125 56.7176 118.448C56.1653 118.765 55.5364 118.923 54.831 118.923C53.7046 118.923 52.7749 118.552 52.0422 117.808C51.3094 117.059 50.9431 116.11 50.9431 114.962C50.9431 113.769 51.3313 112.793 52.1078 112.033C52.8843 111.268 53.8795 110.885 55.0935 110.885C55.9794 110.885 56.7559 111.115 57.423 111.574C58.0902 112.033 58.6069 112.7 58.9733 113.575C59.3561 114.472 59.5475 115.571 59.5475 116.873C59.5475 118.907 59.151 120.482 58.3581 121.597C57.5652 122.713 56.4442 123.271 54.9951 123.271ZM53.1741 116.889C53.6717 117.392 54.3115 117.644 55.0935 117.644C55.8755 117.644 56.518 117.392 57.0211 116.889C57.5297 116.386 57.7839 115.744 57.7839 114.962C57.7839 114.169 57.5269 113.507 57.0129 112.977C56.5043 112.446 55.87 112.181 55.1099 112.181C54.3498 112.181 53.7128 112.443 53.1987 112.968C52.6902 113.488 52.4359 114.136 52.4359 114.912C52.4359 115.722 52.682 116.381 53.1741 116.889ZM65.0145 123V112.804H64.8832L61.8729 114.986V113.428L65.0227 111.164H66.4909V123H65.0145ZM77.3962 122.319C76.6033 122.959 75.5807 123.279 74.3285 123.279C73.0762 123.279 72.0509 122.959 71.2525 122.319C70.4596 121.674 70.0632 120.845 70.0632 119.834C70.0632 119.063 70.2874 118.401 70.7358 117.849C71.1842 117.297 71.7802 116.952 72.5239 116.815V116.684C71.9224 116.52 71.4412 116.2 71.0803 115.724C70.7249 115.249 70.5471 114.688 70.5471 114.043C70.5471 113.119 70.8998 112.361 71.6053 111.771C72.3161 111.18 73.2239 110.885 74.3285 110.885C75.4331 110.885 76.3381 111.18 77.0435 111.771C77.7544 112.361 78.1098 113.119 78.1098 114.043C78.1098 114.694 77.9321 115.254 77.5767 115.724C77.2267 116.195 76.7455 116.515 76.133 116.684V116.815C76.8767 116.952 77.4728 117.297 77.9212 117.849C78.3696 118.401 78.5938 119.063 78.5938 119.834C78.5938 120.845 78.1946 121.674 77.3962 122.319ZM72.3271 121.384C72.8411 121.805 73.5082 122.016 74.3285 122.016C75.1487 122.016 75.8159 121.805 76.3299 121.384C76.8439 120.958 77.1009 120.405 77.1009 119.727C77.1009 119.049 76.8439 118.5 76.3299 118.079C75.8159 117.652 75.1487 117.439 74.3285 117.439C73.5082 117.439 72.8411 117.652 72.3271 118.079C71.813 118.5 71.556 119.049 71.556 119.727C71.556 120.405 71.813 120.958 72.3271 121.384ZM72.6388 115.642C73.0653 116.009 73.6285 116.192 74.3285 116.192C75.0284 116.192 75.5917 116.009 76.0182 115.642C76.4447 115.271 76.658 114.784 76.658 114.182C76.658 113.57 76.4447 113.078 76.0182 112.706C75.5917 112.334 75.0284 112.148 74.3285 112.148C73.6285 112.148 73.0653 112.334 72.6388 112.706C72.2122 113.078 71.999 113.57 71.999 114.182C71.999 114.784 72.2122 115.271 72.6388 115.642ZM88.3835 122.319C87.5906 122.959 86.568 123.279 85.3158 123.279C84.0635 123.279 83.0382 122.959 82.2398 122.319C81.4469 121.674 81.0505 120.845 81.0505 119.834C81.0505 119.063 81.2747 118.401 81.7231 117.849C82.1715 117.297 82.7675 116.952 83.5112 116.815V116.684C82.9097 116.52 82.4285 116.2 82.0676 115.724C81.7121 115.249 81.5344 114.688 81.5344 114.043C81.5344 113.119 81.8871 112.361 82.5925 111.771C83.3034 111.18 84.2112 110.885 85.3158 110.885C86.4204 110.885 87.3254 111.18 88.0308 111.771C88.7417 112.361 89.0971 113.119 89.0971 114.043C89.0971 114.694 88.9194 115.254 88.564 115.724C88.214 116.195 87.7328 116.515 87.1203 116.684V116.815C87.864 116.952 88.4601 117.297 88.9085 117.849C89.3569 118.401 89.5811 119.063 89.5811 119.834C89.5811 120.845 89.1819 121.674 88.3835 122.319ZM83.3144 121.384C83.8284 121.805 84.4955 122.016 85.3158 122.016C86.136 122.016 86.8032 121.805 87.3172 121.384C87.8312 120.958 88.0882 120.405 88.0882 119.727C88.0882 119.049 87.8312 118.5 87.3172 118.079C86.8032 117.652 86.136 117.439 85.3158 117.439C84.4955 117.439 83.8284 117.652 83.3144 118.079C82.8003 118.5 82.5433 119.049 82.5433 119.727C82.5433 120.405 82.8003 120.958 83.3144 121.384ZM83.6261 115.642C84.0526 116.009 84.6158 116.192 85.3158 116.192C86.0157 116.192 86.579 116.009 87.0055 115.642C87.432 115.271 87.6453 114.784 87.6453 114.182C87.6453 113.57 87.432 113.078 87.0055 112.706C86.579 112.334 86.0157 112.148 85.3158 112.148C84.6158 112.148 84.0526 112.334 83.6261 112.706C83.1995 113.078 82.9863 113.57 82.9863 114.182C82.9863 114.784 83.1995 115.271 83.6261 115.642Z" fill="white"/>
<path fill-rule="evenodd" clip-rule="evenodd" d="M163.01 100.203H163.775V94.5847H163.01V93.9463H165.294C166.4 93.9463 167.217 94.2208 167.745 94.7699C168.272 95.3189 168.536 96.134 168.536 97.2151C168.536 98.4068 168.236 99.3091 167.636 99.922C167.036 100.535 166.179 100.841 165.064 100.841H163.01V100.203ZM164.541 100.203H165.154C165.979 100.203 166.615 99.969 167.062 99.5008C167.508 99.0327 167.732 98.2963 167.732 97.2919C167.732 96.3555 167.528 95.6703 167.119 95.2361C166.711 94.802 166.056 94.5849 165.154 94.5849H164.541V100.203ZM173.437 100.203V99.3091H174.113V100.841H169.519V100.203H170.284V94.5847H169.519V93.9463H173.985V95.4785H173.309V94.5847H171.05V97.0108H172.326V96.3723H172.964V98.4153H172.326V97.6492H171.05V100.203H173.437ZM178.414 97.1129C178.865 97.2236 179.197 97.4321 179.41 97.7386C179.622 98.045 179.729 98.4068 179.729 98.8239C179.729 99.4538 179.522 99.9475 179.11 100.305C178.697 100.663 178.061 100.841 177.202 100.841H174.879V100.203H175.645V94.5847H174.879V93.9463H177.215C177.98 93.9463 178.546 94.0867 178.912 94.3677C179.278 94.6486 179.461 95.0529 179.461 95.5807C179.461 95.9382 179.378 96.2468 179.212 96.5064C179.046 96.766 178.78 96.9597 178.414 97.0874V97.1129ZM177.227 100.203C177.797 100.203 178.221 100.099 178.497 99.89C178.774 99.6814 178.912 99.326 178.912 98.8238C178.912 98.3812 178.782 98.0534 178.523 97.8406C178.263 97.6278 177.853 97.5214 177.291 97.5214H176.41V100.203H177.227ZM177.227 96.8833C178.18 96.8833 178.657 96.4874 178.657 95.6958C178.657 95.2957 178.537 95.0105 178.299 94.8403C178.061 94.67 177.682 94.5849 177.163 94.5849H176.41V96.8833H177.227ZM180.622 100.203H181.388V94.5847H180.622V93.9463H182.919V94.5847H182.154V100.203H182.919V100.841H180.622V100.203ZM184.706 100.203H185.599V94.5847H184.196V95.6062H183.519V93.9463H188.445V95.6062H187.769V94.5847H186.365V100.203H187.259V100.841H184.706V100.203Z" fill="white"/>
<path fill-rule="evenodd" clip-rule="evenodd" d="M11.606 14.6443V16.815H12.4993V17.4534H10.0745V16.815H10.8402V11.1968H10.0745V10.5584H12.3845C13.1332 10.5584 13.6863 10.7222 14.0436 11.05C14.401 11.3777 14.5796 11.8523 14.5796 12.4737C14.5796 13.1802 14.3776 13.7186 13.9734 14.0889C13.5693 14.4592 12.9801 14.6443 12.2058 14.6443H11.606ZM12.2441 14.0062C12.7376 14.0062 13.1162 13.8934 13.38 13.6678C13.6437 13.4422 13.7756 13.074 13.7756 12.5633C13.7756 12.044 13.6565 11.6865 13.4182 11.4907C13.18 11.2949 12.8099 11.1971 12.3079 11.1971H11.606V14.0062H12.2441ZM17.732 11.1968H16.9663V16.815H19.0976V15.9212H19.774V17.4534H15.4348V16.815H16.2005V11.1968H15.4348V10.5584H17.732V11.1968ZM22.0712 16.8144V17.4528H20.0292V16.8144H20.6674L22.7221 10.4939H23.4624L25.5554 16.8144H26.1553V17.4528H24.1133V16.8144H24.7514L24.126 14.8991H21.9947L21.3948 16.8144H22.0712ZM23.0284 11.5799L22.1861 14.2613H23.9218L23.054 11.5799H23.0284ZM27.1762 16.815H28.0696V11.1968H26.6657V12.2183H25.9893V10.5584H30.9157V12.2183H30.2392V11.1968H28.8354V16.815H29.7287V17.4534H27.1762V16.815ZM31.5155 16.815H32.2813V11.1968H31.5155V10.5584H33.8128V11.1968H33.047V16.815H33.8128V17.4534H31.5155V16.815ZM39.2241 11.1968H38.4584V10.5584H40.7046V11.1968H39.9388V17.4534H39.1986L36.0845 12.0779H36.059V16.815H36.8248V17.4534H34.5786V16.815H35.3443V11.1968H34.5786V10.5584H36.1101L39.1986 15.8701H39.2241V11.1968ZM42.8742 15.2445C42.8742 15.7808 43.0231 16.1872 43.3209 16.4639C43.6187 16.7405 44.0186 16.8789 44.5206 16.8789C45.0651 16.8789 45.4884 16.7341 45.7905 16.4447C46.0925 16.1553 46.2435 15.7424 46.2435 15.2062V11.1968H45.465V10.5584H47.724V11.1968H46.9582V15.1679C46.9582 15.8829 46.7391 16.4639 46.301 16.9108C45.8628 17.3577 45.2651 17.5811 44.5078 17.5811C43.7761 17.5811 43.1933 17.3704 42.7594 16.9491C42.3254 16.5277 42.1085 15.9638 42.1085 15.2572V11.1968H41.3427V10.5584H43.64V11.1968H42.8742V15.2445ZM54.8582 11.6693L52.6248 17.5173H52.0377L49.817 11.7842H49.7915L49.6638 16.815H50.2764V17.4534H48.2344V16.815H48.9619L49.1278 11.1968H48.3748V10.5584H50.1616L52.3695 16.266H52.395L54.5647 10.5584H56.3642V11.1968H55.6367L55.7771 16.815H56.5301V17.4534H54.3605V16.815H55.0113L54.8837 11.6693H54.8582ZM59.0826 16.815H59.8483V11.1968H59.0826V10.5584H61.3671C62.4732 10.5584 63.29 10.8329 63.8175 11.382C64.345 11.931 64.6088 12.7461 64.6088 13.8272C64.6088 15.0189 64.3088 15.9212 63.709 16.5341C63.1092 17.147 62.252 17.4534 61.1374 17.4534H59.0826V16.815ZM60.6141 16.8153H61.2267C62.052 16.8153 62.688 16.5812 63.1347 16.113C63.5814 15.6448 63.8047 14.9085 63.8047 13.904C63.8047 12.9676 63.6005 12.2824 63.1921 11.8483C62.7837 11.4141 62.1286 11.1971 61.2267 11.1971H60.6141V16.8153ZM69.5095 16.815V15.9212H70.1859V17.4534H65.5914V16.815H66.3572V11.1968H65.5914V10.5584H70.0583V12.0906H69.3819V11.1968H67.1229V13.6229H68.3992V12.9844H69.0373V15.0274H68.3992V14.2613H67.1229V16.815H69.5095ZM74.4869 13.725C74.9379 13.8357 75.2697 14.0442 75.4824 14.3507C75.6951 14.6571 75.8015 15.0189 75.8015 15.436C75.8015 16.0659 75.5952 16.5596 75.1825 16.9172C74.7698 17.2747 74.1339 17.4534 73.2745 17.4534H70.9517V16.815H71.7175V11.1968H70.9517V10.5584H73.2873C74.053 10.5584 74.6188 10.6988 74.9847 10.9798C75.3505 11.2607 75.5335 11.665 75.5335 12.1928C75.5335 12.5503 75.4505 12.8589 75.2846 13.1185C75.1187 13.3781 74.8528 13.5718 74.4869 13.6995V13.725ZM73.3002 16.8152C73.8703 16.8152 74.2935 16.7109 74.5701 16.5023C74.8466 16.2938 74.9848 15.9384 74.9848 15.4362C74.9848 14.9935 74.8551 14.6658 74.5956 14.453C74.3361 14.2402 73.9256 14.1338 73.364 14.1338H72.4834V16.8152H73.3002ZM73.3002 13.4954C74.2531 13.4954 74.7296 13.0996 74.7296 12.3079C74.7296 11.9078 74.6105 11.6227 74.3723 11.4524C74.134 11.2822 73.7554 11.1971 73.2364 11.1971H72.4834V13.4954H73.3002ZM76.6949 16.815H77.4606V11.1968H76.6949V10.5584H78.9921V11.1968H78.2264V16.815H78.9921V17.4534H76.6949V16.815ZM80.779 16.815H81.6723V11.1968H80.2685V12.2183H79.592V10.5584H84.5184V12.2183H83.842V11.1968H82.4381V16.815H83.3315V17.4534H80.779V16.815ZM92.01 17.0703C91.3803 17.4108 90.7422 17.5811 90.0956 17.5811C89.1852 17.5811 88.4684 17.264 87.9451 16.6298C87.4218 15.9957 87.1602 15.121 87.1602 14.0059C87.1602 12.8993 87.4282 12.0267 87.9642 11.3883C88.5003 10.7499 89.215 10.4307 90.1083 10.4307C90.7294 10.4307 91.3633 10.5669 92.01 10.8393V12.346H91.308V11.3372C90.9677 11.201 90.5593 11.1329 90.0828 11.1329C89.4021 11.1329 88.8789 11.3649 88.513 11.8288C88.1472 12.2928 87.9642 13.0014 87.9642 13.9548C87.9642 14.9508 88.1557 15.6871 88.5385 16.1638C88.9214 16.6405 89.4532 16.8788 90.1339 16.8788C90.7039 16.8788 91.3293 16.7086 92.01 16.3681V17.0703ZM94.435 16.8144V17.4528H92.3929V16.8144H93.0311L95.0858 10.4939H95.8261L97.9191 16.8144H98.519V17.4528H96.477V16.8144H97.1151L96.4897 14.8991H94.3584L93.7585 16.8144H94.435ZM95.3921 11.5799L94.5497 14.2613H96.2854L95.4176 11.5799H95.3921ZM100.433 16.815H101.199V17.4534H98.9017V16.815H99.6674V11.1968H98.991V10.5584H101.212C102.003 10.5584 102.582 10.7031 102.947 10.9925C103.313 11.2819 103.496 11.7118 103.496 12.2822C103.496 13.2951 102.96 13.9165 101.888 14.1464V14.1719C102.007 14.24 102.135 14.3443 102.271 14.4847C102.407 14.6252 102.577 14.8869 102.781 15.27L103.624 16.815H104.262V17.4534H103.037C102.935 17.2236 102.837 17.0193 102.743 16.8405C102.65 16.6618 102.56 16.4958 102.475 16.3426L102.003 15.4615C101.833 15.1636 101.697 14.938 101.595 14.7848C101.492 14.6316 101.378 14.5039 101.25 14.4017C101.122 14.3081 100.956 14.2613 100.752 14.2613H100.433V16.815ZM101.046 13.6231C101.59 13.6231 102.001 13.5231 102.277 13.323C102.554 13.123 102.692 12.8017 102.692 12.359C102.692 11.9249 102.567 11.6227 102.316 11.4524C102.065 11.2822 101.671 11.1971 101.135 11.1971H100.433V13.6231H101.046ZM104.645 16.815H105.411V11.1968H104.645V10.5584H106.929C108.035 10.5584 108.852 10.8329 109.38 11.382C109.907 11.931 110.171 12.7461 110.171 13.8272C110.171 15.0189 109.871 15.9212 109.271 16.5341C108.671 17.147 107.814 17.4534 106.7 17.4534H104.645V16.815ZM106.176 16.8153H106.789C107.614 16.8153 108.25 16.5812 108.697 16.113C109.144 15.6448 109.367 14.9085 109.367 13.904C109.367 12.9676 109.163 12.2824 108.754 11.8483C108.346 11.4141 107.691 11.1971 106.789 11.1971H106.176V16.8153Z" fill="white"/>
</g>
<defs>
<clipPath id="clip0_2001_916">
<rect width="200" height="135" rx="13" fill="white"/>
</clipPath>
</defs>
</svg>
