<svg width="114" height="76" viewBox="0 0 114 76" fill="none" xmlns="http://www.w3.org/2000/svg">
<rect width="112.214" height="75.7443" rx="7.25018" fill="#485169"/>
<path d="M10.3149 12.3906C10.2903 12.7925 10.2459 13.1177 10.1814 13.3662C10.117 13.6117 10.0127 13.8218 9.86848 13.9967V14.0612H12.8967V9.29792H10.5174L10.3149 12.3906ZM9.12753 15V16.3116H8.18409V14.0612H8.66731C8.89435 13.9231 9.0585 13.7175 9.15974 13.4445C9.26406 13.1683 9.33003 12.7986 9.35764 12.3353L9.60155 8.35908H13.9276V14.0612H14.756V16.3116H13.8125V15H9.12753ZM18.1041 15.0966C17.3677 15.0966 16.7894 14.865 16.3691 14.4017C15.9487 13.9384 15.7386 13.3018 15.7386 12.4918C15.7386 11.6849 15.9487 11.0498 16.3691 10.5865C16.7925 10.1232 17.3708 9.8916 18.1041 9.8916C18.8343 9.8916 19.4096 10.1232 19.8299 10.5865C20.2533 11.0498 20.465 11.6849 20.465 12.4918C20.465 13.3018 20.2548 13.9384 19.8345 14.4017C19.4142 14.865 18.8374 15.0966 18.1041 15.0966ZM18.1041 14.2176C18.5306 14.2176 18.8604 14.0673 19.0935 13.7666C19.3298 13.4629 19.4479 13.0379 19.4479 12.4918C19.4479 11.9488 19.3298 11.5269 19.0935 11.2262C18.8604 10.9225 18.5306 10.7706 18.1041 10.7706C17.6745 10.7706 17.3432 10.9209 17.11 11.2216C16.8768 11.5223 16.7603 11.9457 16.7603 12.4918C16.7603 13.041 16.8768 13.4659 17.11 13.7666C17.3432 14.0673 17.6745 14.2176 18.1041 14.2176ZM23.0261 13.785C23.2654 14.0734 23.6029 14.2176 24.0386 14.2176C24.4743 14.2176 24.8102 14.0734 25.0465 13.785C25.2858 13.4966 25.4054 13.0886 25.4054 12.5609C25.4054 12.0577 25.2858 11.668 25.0465 11.3919C24.8102 11.1158 24.4743 10.9777 24.0386 10.9777C23.6029 10.9777 23.2654 11.1158 23.0261 11.3919C22.7899 11.668 22.6718 12.0577 22.6718 12.5609C22.6718 13.0886 22.7899 13.4966 23.0261 13.785ZM22.4601 11.0652H22.5383C22.6948 10.7737 22.9141 10.5451 23.1964 10.3794C23.4787 10.2107 23.8208 10.1263 24.2227 10.1263C24.8854 10.1263 25.4177 10.3441 25.8196 10.7798C26.2246 11.2124 26.4271 11.8015 26.4271 12.547C26.4271 13.3386 26.2139 13.9614 25.7874 14.4155C25.364 14.8696 24.7842 15.0966 24.0478 15.0966C23.2777 15.0966 22.6856 14.8451 22.2714 14.3419C21.8602 13.8387 21.6547 13.087 21.6547 12.0868C21.6547 11.464 21.6976 10.9286 21.7835 10.4807C21.8725 10.0297 22.0167 9.64001 22.2162 9.31173C22.4186 8.98344 22.6856 8.73492 23.0169 8.56618C23.3514 8.39743 23.7594 8.30385 24.2411 8.28544L24.7888 8.26243C25.0219 8.25016 25.2474 8.22408 25.4653 8.1842C25.6831 8.14431 25.8411 8.10903 25.9393 8.07835C26.0375 8.0446 26.0896 8.02466 26.0958 8.01852V8.89293C26.0743 8.90827 26.0375 8.92975 25.9853 8.95736C25.9332 8.98191 25.7997 9.01872 25.5849 9.06781C25.3732 9.11383 25.1263 9.14298 24.844 9.15525L24.2963 9.17366C23.9772 9.18593 23.7057 9.23502 23.4817 9.32093C23.2608 9.40684 23.0814 9.53416 22.9433 9.70291C22.8052 9.87166 22.6994 10.0634 22.6257 10.2782C22.5552 10.4929 22.5 10.7553 22.4601 11.0652ZM29.5037 14.2498C29.875 14.2498 30.1833 14.1455 30.4287 13.9369C30.6773 13.7283 30.8015 13.4675 30.8015 13.1545V12.7357L29.5773 12.814C29.2337 12.8354 28.9806 12.906 28.818 13.0257C28.6554 13.1453 28.5741 13.3156 28.5741 13.5365C28.5741 13.7574 28.66 13.9323 28.8318 14.0612C29.0036 14.187 29.2276 14.2498 29.5037 14.2498ZM29.2506 15.0828C28.7597 15.0828 28.3578 14.9463 28.0448 14.6732C27.7349 14.3971 27.58 14.0335 27.58 13.5825C27.58 13.1346 27.7411 12.7833 28.0632 12.5286C28.3854 12.2709 28.8456 12.1236 29.4439 12.0868L30.8015 12.0086V11.576C30.8015 11.3091 30.7141 11.105 30.5392 10.9639C30.3643 10.8197 30.1097 10.7476 29.7752 10.7476C29.4991 10.7476 29.269 10.7967 29.0849 10.8949C28.9039 10.99 28.7858 11.1265 28.7305 11.3045H27.7733C27.8224 10.8749 28.0326 10.5328 28.4038 10.2782C28.7781 10.0205 29.2506 9.8916 29.8213 9.8916C30.4472 9.8916 30.9304 10.0404 31.2709 10.338C31.6146 10.6325 31.7864 11.0452 31.7864 11.576V15H30.8337V14.2959H30.7555C30.6052 14.5475 30.3981 14.7423 30.1342 14.8803C29.8734 15.0153 29.5789 15.0828 29.2506 15.0828ZM35.4981 10.7476H34.4073V12.0454H35.3876C35.9767 12.0454 36.2712 11.8276 36.2712 11.3919C36.2712 11.1894 36.2053 11.0314 36.0733 10.9179C35.9445 10.8044 35.7527 10.7476 35.4981 10.7476ZM35.4566 12.7726H34.4073V14.2406H35.5809C35.8724 14.2406 36.0948 14.1777 36.2482 14.052C36.4016 13.9262 36.4783 13.7451 36.4783 13.5089C36.4783 13.018 36.1378 12.7726 35.4566 12.7726ZM33.4271 15V9.98824H35.6868C36.1746 9.98824 36.555 10.1033 36.8281 10.3334C37.1042 10.5604 37.2423 10.8703 37.2423 11.263C37.2423 11.5177 37.161 11.7463 36.9984 11.9488C36.8388 12.1513 36.6379 12.2755 36.3955 12.3215V12.3998C36.7176 12.4366 36.9769 12.5624 37.1732 12.7772C37.3696 12.9889 37.4678 13.2481 37.4678 13.5549C37.4678 13.9967 37.3113 14.348 36.9984 14.6088C36.6854 14.8696 36.2559 15 35.7098 15H33.4271ZM39.9001 15H38.9198V9.98824H39.9001V13.4353H39.9783L42.2886 9.98824H43.2689V15H42.2886V11.5346H42.215L39.9001 15ZM48.6741 9.98824V10.8212H47.0956V15H46.1061V10.8212H44.5276V9.98824H48.6741ZM51.8381 12.3538H50.9223V14.167H51.8381C52.1388 14.167 52.3781 14.0842 52.5561 13.9185C52.7371 13.7528 52.8276 13.5334 52.8276 13.2604C52.8276 12.9873 52.7371 12.768 52.5561 12.6023C52.3751 12.4366 52.1358 12.3538 51.8381 12.3538ZM49.9329 15V9.98824H50.9223V11.5254H51.9118C52.4917 11.5254 52.9534 11.6818 53.297 11.9948C53.6407 12.3077 53.8125 12.7296 53.8125 13.2604C53.8125 13.7912 53.6407 14.2146 53.297 14.5306C52.9534 14.8435 52.4917 15 51.9118 15H49.9329ZM62.1287 11.6266H61.1668C61.1054 11.372 60.972 11.1664 60.7664 11.0099C60.5639 10.8535 60.3031 10.7752 59.984 10.7752C59.5699 10.7752 59.2431 10.9256 59.0038 11.2262C58.7675 11.5269 58.6494 11.9442 58.6494 12.478C58.6494 13.018 58.7675 13.4429 59.0038 13.7528C59.2431 14.0596 59.5699 14.213 59.984 14.213C60.3001 14.213 60.5593 14.1425 60.7618 14.0013C60.9674 13.8602 61.1024 13.6562 61.1668 13.3892H62.1287C62.0642 13.9047 61.8433 14.3189 61.4659 14.6318C61.0886 14.9417 60.5961 15.0966 59.9886 15.0966C59.2584 15.0966 58.6832 14.865 58.2628 14.4017C57.8456 13.9354 57.6369 13.2941 57.6369 12.478C57.6369 11.6742 57.8456 11.0421 58.2628 10.5819C58.6801 10.1217 59.2538 9.8916 59.984 9.8916C60.5946 9.8916 61.087 10.0511 61.4613 10.3702C61.8387 10.6893 62.0612 11.1081 62.1287 11.6266ZM66.747 15V10.8212H64.4827V15H63.4932V9.98824H67.7318V15H66.747ZM71.5217 15.0966C70.7854 15.0966 70.2071 14.865 69.7867 14.4017C69.3664 13.9384 69.1562 13.3018 69.1562 12.4918C69.1562 11.6849 69.3664 11.0498 69.7867 10.5865C70.2101 10.1232 70.7885 9.8916 71.5217 9.8916C72.2519 9.8916 72.8272 10.1232 73.2476 10.5865C73.6709 11.0498 73.8826 11.6849 73.8826 12.4918C73.8826 13.3018 73.6725 13.9384 73.2522 14.4017C72.8318 14.865 72.255 15.0966 71.5217 15.0966ZM71.5217 14.2176C71.9482 14.2176 72.278 14.0673 72.5112 13.7666C72.7474 13.4629 72.8656 13.0379 72.8656 12.4918C72.8656 11.9488 72.7474 11.5269 72.5112 11.2262C72.278 10.9225 71.9482 10.7706 71.5217 10.7706C71.0922 10.7706 70.7608 10.9209 70.5277 11.2216C70.2945 11.5223 70.1779 11.9457 70.1779 12.4918C70.1779 13.041 70.2945 13.4659 70.5277 13.7666C70.7608 14.0673 71.0922 14.2176 71.5217 14.2176ZM79.5549 11.6266H78.593C78.5316 11.372 78.3982 11.1664 78.1926 11.0099C77.9901 10.8535 77.7293 10.7752 77.4102 10.7752C76.996 10.7752 76.6693 10.9256 76.43 11.2262C76.1937 11.5269 76.0756 11.9442 76.0756 12.478C76.0756 13.018 76.1937 13.4429 76.43 13.7528C76.6693 14.0596 76.996 14.213 77.4102 14.213C77.7263 14.213 77.9855 14.1425 78.188 14.0013C78.3936 13.8602 78.5286 13.6562 78.593 13.3892H79.5549C79.4904 13.9047 79.2695 14.3189 78.8921 14.6318C78.5148 14.9417 78.0223 15.0966 77.4148 15.0966C76.6846 15.0966 76.1094 14.865 75.689 14.4017C75.2718 13.9354 75.0631 13.2941 75.0631 12.478C75.0631 11.6742 75.2718 11.0421 75.689 10.5819C76.1063 10.1217 76.68 9.8916 77.4102 9.8916C78.0208 9.8916 78.5132 10.0511 78.8875 10.3702C79.2649 10.6893 79.4874 11.1081 79.5549 11.6266ZM83.041 15.0966C82.3047 15.0966 81.7263 14.865 81.306 14.4017C80.8857 13.9384 80.6755 13.3018 80.6755 12.4918C80.6755 11.6849 80.8857 11.0498 81.306 10.5865C81.7294 10.1232 82.3077 9.8916 83.041 9.8916C83.7712 9.8916 84.3465 10.1232 84.7668 10.5865C85.1902 11.0498 85.4019 11.6849 85.4019 12.4918C85.4019 13.3018 85.1918 13.9384 84.7714 14.4017C84.3511 14.865 83.7743 15.0966 83.041 15.0966ZM83.041 14.2176C83.4675 14.2176 83.7973 14.0673 84.0305 13.7666C84.2667 13.4629 84.3849 13.0379 84.3849 12.4918C84.3849 11.9488 84.2667 11.5269 84.0305 11.2262C83.7973 10.9225 83.4675 10.7706 83.041 10.7706C82.6115 10.7706 82.2801 10.9209 82.047 11.2216C81.8138 11.5223 81.6972 11.9457 81.6972 12.4918C81.6972 13.041 81.8138 13.4659 82.047 13.7666C82.2801 14.0673 82.6115 14.2176 83.041 14.2176ZM87.9631 13.785C88.2024 14.0734 88.5399 14.2176 88.9755 14.2176C89.4112 14.2176 89.7472 14.0734 89.9834 13.785C90.2227 13.4966 90.3424 13.0886 90.3424 12.5609C90.3424 12.0577 90.2227 11.668 89.9834 11.3919C89.7472 11.1158 89.4112 10.9777 88.9755 10.9777C88.5399 10.9777 88.2024 11.1158 87.9631 11.3919C87.7268 11.668 87.6087 12.0577 87.6087 12.5609C87.6087 13.0886 87.7268 13.4966 87.9631 13.785ZM87.397 11.0652H87.4752C87.6317 10.7737 87.8511 10.5451 88.1333 10.3794C88.4156 10.2107 88.7577 10.1263 89.1596 10.1263C89.8223 10.1263 90.3547 10.3441 90.7566 10.7798C91.1616 11.2124 91.3641 11.8015 91.3641 12.547C91.3641 13.3386 91.1508 13.9614 90.7244 14.4155C90.301 14.8696 89.7211 15.0966 88.9847 15.0966C88.2147 15.0966 87.6225 14.8451 87.2083 14.3419C86.7972 13.8387 86.5916 13.087 86.5916 12.0868C86.5916 11.464 86.6346 10.9286 86.7205 10.4807C86.8095 10.0297 86.9537 9.64001 87.1531 9.31173C87.3556 8.98344 87.6225 8.73492 87.9539 8.56618C88.2883 8.39743 88.6963 8.30385 89.178 8.28544L89.7257 8.26243C89.9589 8.25016 90.1844 8.22408 90.4022 8.1842C90.6201 8.14431 90.7781 8.10903 90.8762 8.07835C90.9744 8.0446 91.0266 8.02466 91.0327 8.01852V8.89293C91.0112 8.90827 90.9744 8.92975 90.9223 8.95736C90.8701 8.98191 90.7366 9.01872 90.5219 9.06781C90.3102 9.11383 90.0632 9.14298 89.7809 9.15525L89.2333 9.17366C88.9142 9.18593 88.6427 9.23502 88.4187 9.32093C88.1978 9.40684 88.0183 9.53416 87.8802 9.70291C87.7422 9.87166 87.6363 10.0634 87.5627 10.2782C87.4921 10.4929 87.4369 10.7553 87.397 11.0652ZM10.881 26.0966C10.1446 26.0966 9.56627 25.865 9.14594 25.4017C8.72561 24.9384 8.51544 24.3018 8.51544 23.4918C8.51544 22.6849 8.72561 22.0498 9.14594 21.5865C9.56934 21.1232 10.1477 20.8916 10.881 20.8916C11.6112 20.8916 12.1864 21.1232 12.6068 21.5865C13.0302 22.0498 13.2419 22.6849 13.2419 23.4918C13.2419 24.3018 13.0317 24.9384 12.6114 25.4017C12.191 25.865 11.6142 26.0966 10.881 26.0966ZM10.881 25.2176C11.3074 25.2176 11.6372 25.0673 11.8704 24.7666C12.1067 24.4629 12.2248 24.0379 12.2248 23.4918C12.2248 22.9488 12.1067 22.5269 11.8704 22.2262C11.6372 21.9225 11.3074 21.7706 10.881 21.7706C10.4514 21.7706 10.1201 21.9209 9.88689 22.2216C9.65371 22.5223 9.53712 22.9457 9.53712 23.4918C9.53712 24.041 9.65371 24.4659 9.88689 24.7666C10.1201 25.0673 10.4514 25.2176 10.881 25.2176ZM17.92 26V21.8212H15.6557V26H14.6663V20.9882H18.9049V26H17.92ZM21.9308 23.7081C21.9063 24.0855 21.8633 24.4107 21.802 24.6838C21.7406 24.9538 21.6501 25.1962 21.5304 25.4109C21.4138 25.6226 21.2589 25.7822 21.0656 25.8895C20.8723 25.9969 20.6407 26.0506 20.3707 26.0506C20.2388 26.0506 20.1252 26.0322 20.0301 25.9954V25.0704C20.113 25.0949 20.2019 25.1072 20.297 25.1072C20.5272 25.1072 20.6959 24.9829 20.8033 24.7344C20.9137 24.4859 20.9858 24.1269 21.0196 23.6575L21.1945 20.9882H24.6461V26H23.6566V21.8212H22.0689L21.9308 23.7081ZM27.9574 25.2498C28.3286 25.2498 28.637 25.1455 28.8824 24.9369C29.1309 24.7283 29.2552 24.4675 29.2552 24.1545V23.7357L28.031 23.814C27.6874 23.8354 27.4343 23.906 27.2717 24.0257C27.1091 24.1453 27.0277 24.3156 27.0277 24.5365C27.0277 24.7574 27.1137 24.9323 27.2855 25.0612C27.4573 25.187 27.6813 25.2498 27.9574 25.2498ZM27.7043 26.0828C27.2134 26.0828 26.8114 25.9463 26.4985 25.6732C26.1886 25.3971 26.0337 25.0335 26.0337 24.5825C26.0337 24.1346 26.1948 23.7833 26.5169 23.5286C26.8391 23.2709 27.2993 23.1236 27.8976 23.0868L29.2552 23.0086V22.576C29.2552 22.3091 29.1678 22.105 28.9929 21.9639C28.818 21.8197 28.5633 21.7476 28.2289 21.7476C27.9528 21.7476 27.7227 21.7967 27.5386 21.8949C27.3576 21.99 27.2394 22.1265 27.1842 22.3045H26.227C26.2761 21.8749 26.4862 21.5328 26.8575 21.2782C27.2318 21.0205 27.7043 20.8916 28.2749 20.8916C28.9008 20.8916 29.3841 21.0404 29.7246 21.338C30.0682 21.6325 30.2401 22.0452 30.2401 22.576V26H29.2874V25.2959H29.2092C29.0588 25.5475 28.8517 25.7423 28.5879 25.8803C28.3271 26.0153 28.0326 26.0828 27.7043 26.0828ZM35.6177 20.9882V21.8212H34.0392V26H33.0497V21.8212H31.4712V20.9882H35.6177ZM41.4096 26V20.9882H42.399V26H41.4096ZM38.7817 23.3538H37.8659V25.167H38.7817C39.0824 25.167 39.3217 25.0842 39.4997 24.9185C39.6807 24.7528 39.7712 24.5334 39.7712 24.2604C39.7712 23.9873 39.6807 23.768 39.4997 23.6023C39.3187 23.4366 39.0793 23.3538 38.7817 23.3538ZM36.8764 26V20.9882H37.8659V22.5254H38.8554C39.4352 22.5254 39.897 22.6818 40.2406 22.9948C40.5843 23.3077 40.7561 23.7296 40.7561 24.2604C40.7561 24.7912 40.5843 25.2146 40.2406 25.5306C39.897 25.8435 39.4352 26 38.8554 26H36.8764Z" fill="white"/>
</svg>
