<svg width="114" height="77" viewBox="0 0 114 77" fill="none" xmlns="http://www.w3.org/2000/svg">
<rect width="112.214" height="75.7443" rx="7.25018" fill="#485169"/>
<path fill-rule="evenodd" clip-rule="evenodd" d="M83.7504 70.5318H86.5417L88.2962 60.0793H85.5049L83.7504 70.5318ZM93.839 64.2683C92.8819 63.7896 92.2838 63.4704 92.2838 62.9917C92.2838 62.5528 92.8022 62.0741 93.8788 62.0741C94.796 62.0741 95.434 62.2736 95.9524 62.4731L96.1916 62.5927L96.5505 60.3187C95.9923 60.1193 95.1549 59.8799 94.0782 59.8799C91.3268 59.8799 89.4127 61.2762 89.3729 63.3108C89.3729 64.8269 90.7685 65.6647 91.8053 66.1434C92.8819 66.662 93.2408 66.9812 93.2408 67.42C93.2408 68.1381 92.3636 68.4573 91.566 68.4573C90.4495 68.4573 89.8514 68.2977 88.9342 67.8988L88.5753 67.7392L88.1766 70.093C88.8146 70.3723 90.0109 70.6515 91.2869 70.6515C94.1978 70.6515 96.1119 69.2552 96.1119 67.1009C96.1916 65.904 95.434 65.0263 93.839 64.2683ZM103.688 60.0793H101.535C100.857 60.0793 100.379 60.2788 100.099 60.957L95.9922 70.5318H98.9032C98.9032 70.5318 99.3817 69.2552 99.5013 68.9759C99.8203 68.9759 102.652 68.9759 103.05 68.9759C103.13 69.335 103.369 70.5318 103.369 70.5318H105.961L103.688 60.0793ZM100.259 66.8218C100.498 66.2233 101.376 63.9094 101.376 63.9094C101.376 63.9493 101.615 63.311 101.734 62.9121L101.934 63.8296C101.934 63.8296 102.452 66.3031 102.572 66.8617H100.259V66.8218ZM81.3977 60.0793L78.6861 67.1806L78.407 65.7444L77.45 60.957C77.2905 60.2788 76.812 60.0793 76.174 60.0793H71.7078L71.668 60.2788C72.7446 60.5581 73.7415 60.957 74.5789 61.4358L77.0512 70.4919H80.002L84.3884 60.0793H81.3977Z" fill="white"/>
<path d="M8.97947 67.4556C8.70948 67.7256 8.37812 67.8606 7.9854 67.8606C7.59269 67.8606 7.26133 67.7256 6.99134 67.4556C6.72134 67.1856 6.58635 66.8543 6.58635 66.4616C6.58635 66.0689 6.72134 65.7375 6.99134 65.4675C7.26133 65.1975 7.59269 65.0625 7.9854 65.0625C8.37812 65.0625 8.70948 65.1975 8.97947 65.4675C9.24946 65.7375 9.38446 66.0689 9.38446 66.4616C9.38446 66.8543 9.24946 67.1856 8.97947 67.4556ZM13.8739 67.4556C13.6039 67.7256 13.2726 67.8606 12.8798 67.8606C12.4871 67.8606 12.1558 67.7256 11.8858 67.4556C11.6158 67.1856 11.4808 66.8543 11.4808 66.4616C11.4808 66.0689 11.6158 65.7375 11.8858 65.4675C12.1558 65.1975 12.4871 65.0625 12.8798 65.0625C13.2726 65.0625 13.6039 65.1975 13.8739 65.4675C14.1439 65.7375 14.2789 66.0689 14.2789 66.4616C14.2789 66.8543 14.1439 67.1856 13.8739 67.4556ZM18.7683 67.4556C18.4983 67.7256 18.167 67.8606 17.7743 67.8606C17.3816 67.8606 17.0502 67.7256 16.7802 67.4556C16.5102 67.1856 16.3752 66.8543 16.3752 66.4616C16.3752 66.0689 16.5102 65.7375 16.7802 65.4675C17.0502 65.1975 17.3816 65.0625 17.7743 65.0625C18.167 65.0625 18.4983 65.1975 18.7683 65.4675C19.0383 65.7375 19.1733 66.0689 19.1733 66.4616C19.1733 66.8543 19.0383 67.1856 18.7683 67.4556ZM23.6628 67.4556C23.3928 67.7256 23.0614 67.8606 22.6687 67.8606C22.276 67.8606 21.9446 67.7256 21.6746 67.4556C21.4046 67.1856 21.2697 66.8543 21.2697 66.4616C21.2697 66.0689 21.4046 65.7375 21.6746 65.4675C21.9446 65.1975 22.276 65.0625 22.6687 65.0625C23.0614 65.0625 23.3928 65.1975 23.6628 65.4675C23.9328 65.7375 24.0678 66.0689 24.0678 66.4616C24.0678 66.8543 23.9328 67.1856 23.6628 67.4556ZM28.693 64.2617C28.693 63.6727 28.8924 63.1879 29.2913 62.8075C29.6932 62.427 30.2025 62.2368 30.8192 62.2368C31.4144 62.2368 31.913 62.4163 32.3149 62.7752C32.7199 63.1311 32.9224 63.5729 32.9224 64.1007C32.9224 64.4474 32.8242 64.7879 32.6279 65.1223C32.4315 65.4568 32.0618 65.9154 31.5187 66.4984L29.9218 68.215V68.2886H33.0328V69.0342H28.7344V68.4635L31.0309 65.9553C31.4574 65.492 31.7412 65.1392 31.8823 64.8968C32.0234 64.6545 32.094 64.3998 32.094 64.1329C32.094 63.8015 31.9682 63.5239 31.7166 63.2999C31.4681 63.0728 31.1613 62.9593 30.7962 62.9593C30.4065 62.9593 30.0921 63.079 29.8528 63.3183C29.6134 63.5576 29.4938 63.8721 29.4938 64.2617V64.2663H28.693V64.2617ZM34.5355 64.2617C34.5355 63.6727 34.7349 63.1879 35.1338 62.8075C35.5357 62.427 36.045 62.2368 36.6617 62.2368C37.2569 62.2368 37.7555 62.4163 38.1574 62.7752C38.5624 63.1311 38.7649 63.5729 38.7649 64.1007C38.7649 64.4474 38.6667 64.7879 38.4703 65.1223C38.274 65.4568 37.9043 65.9154 37.3612 66.4984L35.7643 68.215V68.2886H38.8753V69.0342H34.5769V68.4635L36.8734 65.9553C37.2999 65.492 37.5837 65.1392 37.7248 64.8968C37.8659 64.6545 37.9365 64.3998 37.9365 64.1329C37.9365 63.8015 37.8107 63.5239 37.5591 63.2999C37.3106 63.0728 37.0038 62.9593 36.6387 62.9593C36.249 62.9593 35.9345 63.079 35.6952 63.3183C35.4559 63.5576 35.3363 63.8721 35.3363 64.2617V64.2663H34.5355V64.2617ZM43.3142 69.0342V67.6581H40.0788V66.9034C40.6863 65.8234 41.6344 64.32 42.923 62.3933H44.1241V66.9172H45.0676V67.6581H44.1241V69.0342H43.3142ZM40.9256 66.8666V66.9218H43.3188V63.1618H43.2635C42.5456 64.205 41.7663 65.4399 40.9256 66.8666ZM48.6826 69.1907C48.0536 69.1907 47.5336 69.0142 47.1225 68.6614C46.7114 68.3055 46.4874 67.8407 46.4506 67.2669H47.2651C47.302 67.6259 47.4508 67.9159 47.7116 68.1368C47.9754 68.3546 48.3022 68.4635 48.6918 68.4635C49.1367 68.4635 49.4941 68.3239 49.7641 68.0447C50.0372 67.7655 50.1737 67.3989 50.1737 66.9448C50.1737 66.4907 50.0372 66.1225 49.7641 65.8403C49.4941 65.5549 49.1413 65.4123 48.7056 65.4123C48.4049 65.4123 48.135 65.4782 47.8956 65.6102C47.6563 65.739 47.4692 65.9216 47.3342 66.1578H46.5564L46.92 62.3933H50.6247V63.1342H47.5689L47.3802 65.265H47.4538C47.776 64.8876 48.2439 64.6989 48.8575 64.6989C49.4895 64.6989 50.005 64.906 50.4038 65.3202C50.8027 65.7344 51.0021 66.2683 51.0021 66.9218C51.0021 67.5968 50.7873 68.1444 50.3578 68.5648C49.9283 68.982 49.3699 69.1907 48.6826 69.1907Z" fill="white"/>
<path fill-rule="evenodd" clip-rule="evenodd" d="M91.4597 56.2213H91.8893V53.0691H91.4597V52.7109H92.7414C93.362 52.7109 93.8203 52.865 94.1163 53.173C94.4122 53.4811 94.5602 53.9384 94.5602 54.5449C94.5602 55.2136 94.392 55.7198 94.0554 56.0637C93.7188 56.4076 93.2379 56.5795 92.6125 56.5795H91.4597V56.2213ZM92.3189 56.2215H92.6627C93.1257 56.2215 93.4825 56.0901 93.7332 55.8274C93.9838 55.5648 94.1091 55.1516 94.1091 54.5881C94.1091 54.0627 93.9945 53.6782 93.7654 53.4346C93.5363 53.1911 93.1687 53.0693 92.6627 53.0693H92.3189V56.2215ZM97.3099 56.2213V55.7199H97.6894V56.5795H95.1116V56.2213H95.5412V53.0691H95.1116V52.7109H97.6178V53.5706H97.2383V53.0691H95.9709V54.4303H96.6869V54.0721H97.045V55.2184H96.6869V54.7885H95.9709V56.2213H97.3099ZM100.103 54.4876C100.356 54.5497 100.542 54.6667 100.661 54.8387C100.781 55.0106 100.84 55.2136 100.84 55.4476C100.84 55.801 100.724 56.0781 100.493 56.2786C100.261 56.4792 99.9046 56.5795 99.4224 56.5795H98.1192V56.2213H98.5488V53.0691H98.1192V52.7109H99.4296C99.8592 52.7109 100.177 52.7897 100.382 52.9474C100.587 53.105 100.69 53.3318 100.69 53.6279C100.69 53.8285 100.643 54.0017 100.55 54.1473C100.457 54.293 100.308 54.4017 100.103 54.4733V54.4876ZM99.4366 56.2213C99.7565 56.2213 99.994 56.1628 100.149 56.0458C100.304 55.9288 100.382 55.7294 100.382 55.4476C100.382 55.1992 100.309 55.0154 100.163 54.896C100.018 54.7766 99.7875 54.7169 99.4724 54.7169H98.9784V56.2213H99.4366ZM99.4366 54.3588C99.9713 54.3588 100.239 54.1367 100.239 53.6926C100.239 53.4681 100.172 53.3081 100.038 53.2126C99.9045 53.117 99.692 53.0693 99.4008 53.0693H98.9784V54.3588H99.4366ZM101.341 56.2213H101.771V53.0691H101.341V52.7109H102.63V53.0691H102.201V56.2213H102.63V56.5795H101.341V56.2213ZM103.633 56.2213H104.134V53.0691H103.346V53.6423H102.967V52.7109H105.731V53.6423H105.351V53.0691H104.564V56.2213H105.065V56.5795H103.633V56.2213Z" fill="white"/>
<path fill-rule="evenodd" clip-rule="evenodd" d="M6.51175 8.21655V9.43444H7.01299V9.79265H5.65247V9.43444H6.08211V6.28225H5.65247V5.92405H6.94855C7.36864 5.92405 7.67893 6.01598 7.87943 6.19986C8.07993 6.38374 8.18018 6.65 8.18018 6.99866C8.18018 7.39507 8.06681 7.69715 7.84005 7.90491C7.61329 8.11267 7.28271 8.21655 6.8483 8.21655H6.51175ZM6.8698 7.85875C7.14668 7.85875 7.35911 7.79547 7.5071 7.6689C7.65509 7.54234 7.72908 7.33578 7.72908 7.04921C7.72908 6.75787 7.66225 6.55728 7.52858 6.44743C7.39492 6.33758 7.18726 6.28266 6.9056 6.28266H6.51177V7.85875H6.8698ZM9.94886 6.28225H9.51922V9.43444H10.7151V8.93296H11.0946V9.79265H8.65994V9.43444H9.08958V6.28225H8.65994V5.92405H9.94886V6.28225ZM12.3835 9.43437V9.79258H11.2378V9.43437H11.5958L12.7487 5.88815H13.164L14.3384 9.43437H14.6749V9.79258H13.5292V9.43437H13.8872L13.5364 8.35976H12.3405L12.004 9.43437H12.3835ZM12.9205 6.49744L12.4479 8.0019H13.4218L12.9349 6.49744H12.9205ZM15.2478 9.43444H15.749V6.28225H14.9613V6.85538H14.5818V5.92405H17.3458V6.85538H16.9663V6.28225H16.1786V9.43444H16.6799V9.79265H15.2478V9.43444ZM17.6824 9.43444H18.112V6.28225H17.6824V5.92405H18.9713V6.28225H18.5417V9.43444H18.9713V9.79265H17.6824V9.43444ZM22.0075 6.28225H21.5778V5.92405H22.8381V6.28225H22.4085V9.79265H21.9931L20.2459 6.77657H20.2316V9.43444H20.6612V9.79265H19.401V9.43444H19.8306V6.28225H19.401V5.92405H20.2603L21.9931 8.9043H22.0075V6.28225ZM24.0554 8.55326C24.0554 8.85416 24.1389 9.08221 24.306 9.23743C24.4731 9.39265 24.6975 9.47026 24.9791 9.47026C25.2846 9.47026 25.5221 9.38907 25.6916 9.22669C25.8611 9.0643 25.9458 8.83266 25.9458 8.53177V6.28225H25.509V5.92405H26.7764V6.28225H26.3468V8.51028C26.3468 8.91147 26.2239 9.23743 25.978 9.48817C25.7322 9.73892 25.3968 9.86429 24.972 9.86429C24.5614 9.86429 24.2344 9.74608 23.9909 9.50967C23.7475 9.27325 23.6257 8.95684 23.6257 8.56043V6.28225H23.1961V5.92405H24.485V6.28225H24.0554V8.55326ZM30.7793 6.54732L29.5261 9.82847H29.1967L27.9508 6.6118H27.9365L27.8649 9.43444H28.2086V9.79265H27.0629V9.43444H27.471L27.5641 6.28225H27.1416V5.92405H28.1441L29.3829 9.12639H29.3972L30.6146 5.92405H31.6242V6.28225H31.2161L31.2948 9.43444H31.7173V9.79265H30.5V9.43444H30.8652L30.7936 6.54732H30.7793ZM33.1494 9.43444H33.5791V6.28225H33.1494V5.92405H34.4312C35.0518 5.92405 35.51 6.07807 35.806 6.38613C36.102 6.69419 36.25 7.15149 36.25 7.75805C36.25 8.4267 36.0817 8.93296 35.7452 9.27683C35.4086 9.62071 34.9277 9.79265 34.3023 9.79265H33.1494V9.43444ZM34.0087 9.43485H34.3524C34.8155 9.43485 35.1723 9.30351 35.4229 9.04083C35.6735 8.77814 35.7988 8.36502 35.7988 7.80144C35.7988 7.27607 35.6843 6.8916 35.4551 6.64802C35.226 6.40444 34.8584 6.28266 34.3524 6.28266H34.0087V9.43485ZM38.9997 9.43444V8.93296H39.3792V9.79265H36.8013V9.43444H37.231V6.28225H36.8013V5.92405H39.3076V6.78374H38.928V6.28225H37.6606V7.64342H38.3767V7.28522H38.7347V8.43147H38.3767V8.00163H37.6606V9.43444H38.9997ZM41.7923 7.70074C42.0454 7.76283 42.2315 7.87984 42.3509 8.05178C42.4702 8.22372 42.5299 8.4267 42.5299 8.66072C42.5299 9.01415 42.4141 9.29116 42.1826 9.49176C41.9511 9.69235 41.5942 9.79265 41.1121 9.79265H39.8088V9.43444H40.2385V6.28225H39.8088V5.92405H41.1192C41.5489 5.92405 41.8663 6.00285 42.0716 6.16046C42.2769 6.31807 42.3795 6.54493 42.3795 6.84105C42.3795 7.04164 42.333 7.21477 42.2399 7.36044C42.1468 7.50611 41.9976 7.61477 41.7923 7.68641V7.70074ZM41.1265 9.43436C41.4463 9.43436 41.6838 9.37586 41.839 9.25884C41.9941 9.14183 42.0717 8.94243 42.0717 8.66064C42.0717 8.41229 41.9989 8.22841 41.8533 8.10901C41.7077 7.98961 41.4773 7.92991 41.1623 7.92991H40.6682V9.43436H41.1265ZM41.1265 7.57219C41.6611 7.57219 41.9285 7.35011 41.9285 6.90593C41.9285 6.68145 41.8616 6.52146 41.728 6.42594C41.5943 6.33042 41.3819 6.28266 41.0907 6.28266H40.6682V7.57219H41.1265ZM43.0311 9.43444H43.4607V6.28225H43.0311V5.92405H44.32V6.28225H43.8904V9.43444H44.32V9.79265H43.0311V9.43444ZM45.3226 9.43444H45.8238V6.28225H45.0361V6.85538H44.6566V5.92405H47.4206V6.85538H47.0411V6.28225H46.2534V9.43444H46.7547V9.79265H45.3226V9.43444ZM51.6239 9.57786C51.2707 9.7689 50.9126 9.86442 50.5498 9.86442C50.039 9.86442 49.6368 9.68652 49.3433 9.3307C49.0497 8.97488 48.9029 8.48415 48.9029 7.85848C48.9029 7.23759 49.0532 6.74805 49.354 6.38984C49.6548 6.03164 50.0557 5.85254 50.557 5.85254C50.9055 5.85254 51.2611 5.92896 51.6239 6.08179V6.92715H51.2301V6.36119C51.0391 6.28477 50.81 6.24656 50.5427 6.24656C50.1608 6.24656 49.8672 6.37671 49.6619 6.63701C49.4566 6.8973 49.354 7.2949 49.354 7.82982C49.354 8.38863 49.4614 8.80175 49.6762 9.06921C49.8911 9.33667 50.1894 9.4704 50.5713 9.4704C50.8912 9.4704 51.242 9.37488 51.6239 9.18384V9.57786ZM52.9845 9.43437V9.79258H51.8388V9.43437H52.1969L53.3497 5.88815H53.7651L54.9394 9.43437H55.276V9.79258H54.1302V9.43437H54.4883L54.1374 8.35976H52.9416L52.605 9.43437H52.9845ZM53.5215 6.49744L53.0489 8.0019H54.0228L53.5358 6.49744H53.5215ZM56.3499 9.43444H56.7796V9.79265H55.4907V9.43444H55.9203V6.28225H55.5408V5.92405H56.7867C57.2307 5.92405 57.5553 6.00524 57.7606 6.16762C57.9659 6.33001 58.0685 6.5712 58.0685 6.8912C58.0685 7.45955 57.7678 7.8082 57.1663 7.93715V7.95148C57.2331 7.98969 57.3047 8.04819 57.3811 8.127C57.4575 8.20581 57.5529 8.35267 57.6675 8.56759L58.1401 9.43444H58.4981V9.79265H57.8107C57.7534 9.66369 57.6985 9.54907 57.646 9.44877C57.5935 9.34847 57.5434 9.25534 57.4956 9.16937L57.2307 8.67505C57.1352 8.50789 57.0588 8.38133 57.0016 8.29536C56.9443 8.20939 56.8798 8.13775 56.8082 8.08043C56.7366 8.0279 56.6435 8.00163 56.529 8.00163H56.3499V9.43444ZM56.6936 7.64383C56.9992 7.64383 57.2295 7.58771 57.3847 7.47547C57.5398 7.36324 57.6174 7.18294 57.6174 6.93459C57.6174 6.69101 57.547 6.52146 57.4061 6.42594C57.2653 6.33042 57.0445 6.28266 56.7438 6.28266H56.3499V7.64383H56.6936ZM58.713 9.43444H59.1426V6.28225H58.713V5.92405H59.9947C60.6153 5.92405 61.0736 6.07807 61.3696 6.38613C61.6655 6.69419 61.8135 7.15149 61.8135 7.75805C61.8135 8.4267 61.6452 8.93296 61.3087 9.27683C60.9721 9.62071 60.4912 9.79265 59.8658 9.79265H58.713V9.43444ZM59.5722 9.43485H59.9159C60.379 9.43485 60.7358 9.30351 60.9865 9.04083C61.2371 8.77814 61.3624 8.36502 61.3624 7.80144C61.3624 7.27607 61.2478 6.8916 61.0187 6.64802C60.7895 6.40444 60.422 6.28266 59.9159 6.28266H59.5722V9.43485Z" fill="white"/>
</svg>
