<svg width="50" height="50" viewBox="0 0 50 50" fill="none" xmlns="http://www.w3.org/2000/svg">
<path d="M25 50C38.6738 50 50 38.698 50 25C50 11.3262 38.6738 0 24.9758 0C11.302 0 0 11.3262 0 25C0 38.698 11.3262 50 25 50ZM25 30C20.2565 29.9758 16 26.2275 16 21C15.9758 16.0629 20.2807 12 25 12C29.6951 12 34 16.0629 34 21C34 26.2275 29.7193 30.0484 25 30ZM25 46C19.5789 46 13.819 43.6592 10.1646 39.7144C12.9235 35.5518 18.4656 34 25 34C31.4618 34 37.0281 35.5034 39.8112 39.7144C36.1568 43.6592 30.4211 46 25 46Z" fill="#333333"/>
</svg>
